<svg xmlns="http://www.w3.org/2000/svg" width="155" height="145" fill="none" viewBox="0 0 155 145"><rect width="155" height="145" fill="#fff" rx="20"/><path fill="#0d2636" d="M25.066 31.44h24V114h-24zm33.84 54.48h-4.8V67.56h4.08q3.72 0 5.64-.24 1.92-.36 3-1.2.96-.84 1.32-2.52t.36-4.92-.36-4.92q-.36-1.8-1.32-2.64t-2.88-1.08q-1.8-.24-5.76-.24h-4.08V31.44h12.36q8.52 0 13.8 1.68t8.16 5.16q2.64 3.24 3.48 8.04.96 4.8.96 12.36 0 9.72-1.8 15-2.52 6.72-8.88 9.48L94.666 114h-25.2z"/><path fill="#e38445" d="M105.805 94.44h24.24V114h-24.24z"/></svg>